<svg xmlns="http://www.w3.org/2000/svg" viewBox="0 0 24 24"><path d="M4.337 22c-.075 0-.15-.004-.226-.014-1.66-.206-3.202-1.313-3.929-2.821a1.823 1.823 0 0 1 .158-1.858l5.531-7.715a3.454 3.454 0 0 1 1.183-1.031l1.089-.575c.242-.128.287-.175.803-.748.57-.633 1.623-1.805 4.009-4.212.043-.172.121-.367.322-.477a.763.763 0 0 1 .15-.346.622.622 0 0 1 .486-.203c.256 0 .676.083 1.213.463.563.407.771.795.848 1.048a.757.757 0 0 1-.044.465.63.63 0 0 1-.287.277c-.045.245-.224.379-.352.457-1.508 3.018-2.279 4.394-2.696 5.138-.381.68-.411.738-.454 1.011l-.193 1.217a3.423 3.423 0 0 1-.597 1.454L5.82 21.24c-.345.481-.899.76-1.483.76zM13.9 3.391a.494.494 0 0 1-.132.234c-2.441 2.461-3.507 3.646-4.078 4.281-.531.591-.673.749-1.08.964l-1.088.575a2.432 2.432 0 0 0-.837.73l-5.531 7.714a.825.825 0 0 0-.07.842c.583 1.21 1.82 2.099 3.151 2.264a.824.824 0 0 0 .772-.337l5.531-7.711c.217-.303.363-.657.421-1.027l.193-1.217c.072-.456.179-.645.57-1.344.42-.748 1.201-2.141 2.742-5.229a.494.494 0 0 1 .187-.203.628.628 0 0 1 .18-.402 1.956 1.956 0 0 0-.287-.247 2.021 2.021 0 0 0-.318-.188.63.63 0 0 1-.326.301zm.796.567.375.3-.281-.413a.321.321 0 0 0-.094.113zm.947.035-.49.133.466-.018a.29.29 0 0 0 .024-.115zM13.431 2.52l.228.431-.137-.48a.227.227 0 0 0-.091.049zm.834.065v.005-.005zM19.669 22a1.823 1.823 0 0 1-1.485-.758l-5.53-7.711a2.672 2.672 0 0 1-.308-.545.504.504 0 0 1 .464-.692c.229 0 .421.149.48.357.041.089.1.189.178.299l5.528 7.708a.83.83 0 0 0 .773.335c1.333-.171 2.57-1.058 3.15-2.261a.833.833 0 0 0-.076-.843l-5.53-7.72a2.436 2.436 0 0 0-.836-.729l-1.089-.569c-.354-.202-.501-.338-.905-.773a.499.499 0 1 1 .732-.68c.373.4.44.454.652.575l1.073.562c.464.243.873.6 1.184 1.031l5.531 7.721c.39.542.453 1.254.165 1.856-.724 1.502-2.265 2.608-3.928 2.821a1.52 1.52 0 0 1-.223.016zM9.49 5.66a.5.5 0 0 1-.454-.29 17.106 17.106 0 0 0-.301-.612l-.026-.052c-.153-.098-.312-.23-.351-.456a.628.628 0 0 1-.296-.295.732.732 0 0 1-.013-.499c.027-.131.204-.541.815-.989C9.292 2.16 9.721 2 10.11 2c.181 0 .352.078.471.214.067.078.123.22.142.346.219.125.293.33.325.462.113.113.194.196.271.28a.499.499 0 1 1-.736.676c-.09-.097-.186-.193-.289-.297a.843.843 0 0 1-.19-.298.67.67 0 0 1-.321-.3 2.02 2.02 0 0 0-.612.437.618.618 0 0 1 .183.405.513.513 0 0 1 .184.2l.091.182c.111.221.22.436.316.644a.5.5 0 0 1-.455.709zm-.854-1.326.01.003-.01-.003zm1.676-.873c.014.004.027.008.041.01l-.041-.01zm.261-.272-.504.038a.333.333 0 0 0 .082.131l.422-.169zm.147-.369-.001.011.001-.011z"/></svg>