<svg width="23" height="23" viewBox="0 0 23 23" fill="none" xmlns="http://www.w3.org/2000/svg">
<path d="M20.6897 18.2083H7.59821L3.74777 1.4375H1.4375M4.51786 4.63194H23L20.6897 15.0139H6.82812L4.51786 4.63194Z" stroke="black" stroke-width="2" stroke-linecap="round" stroke-linejoin="round"/>
<path d="M19.1496 23C20.0002 23 20.6897 22.2849 20.6897 21.4028C20.6897 20.5207 20.0002 19.8056 19.1496 19.8056C18.2989 19.8056 17.6094 20.5207 17.6094 21.4028C17.6094 22.2849 18.2989 23 19.1496 23Z" stroke="black" stroke-width="2" stroke-linecap="round" stroke-linejoin="round"/>
<path d="M9.13838 23C9.989 23 10.6786 22.2849 10.6786 21.4028C10.6786 20.5207 9.989 19.8056 9.13838 19.8056C8.28777 19.8056 7.59821 20.5207 7.59821 21.4028C7.59821 22.2849 8.28777 23 9.13838 23Z" stroke="black" stroke-width="2" stroke-linecap="round" stroke-linejoin="round"/>
</svg>
