<svg xmlns="http://www.w3.org/2000/svg" viewBox="0 0 24 24"><path fill="#7E451C" d="m23.736 17.884-5.822-8.117c-.517-.722-1.041-.914-2.207-1.527-.438-.231-.556-.426-1.194-1.129a.086.086 0 0 0-.14.019c-1.811 3.467-1.843 3.233-1.917 3.702-.067.418-.051.781.012 1.164.074.469.258.918.536 1.305l5.826 8.117c.297.414.79.632 1.295.574 1.577-.192 3.051-1.249 3.744-2.679a1.431 1.431 0 0 0-.133-1.429zM8.822 3.949c.308.62.598 1.191.868 1.718a.08.08 0 0 0 .129.019c.438-.469.962-1.023 1.584-1.663a.14.14 0 0 0 .004-.192c-.313-.32-.645-.66-1.002-1.019-.039-.183-.039-.285-.141-.312-.118-.031-.258-.039-.246-.18.013-.129.056-.316-.108-.32-.176-.004-.517.044-1.002.391-.481.347-.642.656-.692.824-.055.164.141.18.266.211h-.001c.133.035.098.172.09.289-.007.105.082.136.251.234z"/><path fill="#B8661E" d="m5.175 21.413 5.826-8.113c.278-.387.462-.836.536-1.305l.204-1.28c.129-.809.316-.512 3.439-6.763h-.002c.164-.097.259-.129.255-.238-.008-.118-.043-.254.09-.289l.176-.043c.071-.02.118-.094.094-.164-.051-.168-.212-.477-.693-.824-.485-.344-.825-.395-1.002-.39a.127.127 0 0 0-.125.141l.016.18c.012.141-.129.153-.246.18-.102.027-.102.125-.141.312C8.676 7.775 9.02 7.857 8.297 8.24l-1.146.605a3.074 3.074 0 0 0-1.065.926L.26 17.888c-.297.414-.344.96-.121 1.421.684 1.418 2.152 2.48 3.728 2.675a1.4 1.4 0 0 0 1.308-.571z"/></svg>