<svg width="72" height="67" viewBox="0 0 72 67" fill="none" xmlns="http://www.w3.org/2000/svg">
<path d="M36 8.375C50.9118 8.375 63 19.6239 63 33.5C63 47.3763 50.9118 58.625 36 58.625C21.0883 58.625 9 47.3763 9 33.5C9 19.6239 21.0883 8.375 36 8.375Z" stroke="#CCCCCC" stroke-width="3" stroke-linecap="round"/>
<path d="M24 44.6667C25.5 41.875 29.3726 39.0833 36 39.0833C42.6273 39.0833 46.5 41.875 48 44.6667" stroke="#CCCCCC" stroke-width="3" stroke-linecap="round"/>
<path d="M27 30.7083C28.6569 30.7083 30 28.8335 30 26.5208C30 24.2081 28.6569 22.3333 27 22.3333C25.3431 22.3333 24 24.2081 24 26.5208C24 28.8335 25.3431 30.7083 27 30.7083Z" fill="#CCCCCC"/>
<path d="M45 30.7083C46.6569 30.7083 48 28.8335 48 26.5208C48 24.2081 46.6569 22.3333 45 22.3333C43.3431 22.3333 42 24.2081 42 26.5208C42 28.8335 43.3431 30.7083 45 30.7083Z" fill="#CCCCCC"/>
</svg>
